<svg xmlns="http://www.w3.org/2000/svg" width="25" height="25" viewBox="0 0 33 33"><defs><style>.a{fill:#fff;}</style></defs><path class="a" d="M51.222,28.564l-2.961-1.637a12.278,12.278,0,0,0,0-4.671l2.961-1.637a.789.789,0,0,0,.382-.931A16.419,16.419,0,0,0,47.8,13.4a.863.863,0,0,0-1.029-.153l-2.961,1.637a13.269,13.269,0,0,0-4.226-2.335V9.277a.806.806,0,0,0-.653-.778,18.233,18.233,0,0,0-7.589,0,.806.806,0,0,0-.653.778V12.55a13.688,13.688,0,0,0-4.226,2.335l-2.954-1.637a.852.852,0,0,0-1.029.153,16.32,16.32,0,0,0-3.8,6.294.781.781,0,0,0,.382.931l2.961,1.637a12.278,12.278,0,0,0,0,4.671l-2.961,1.637a.789.789,0,0,0-.382.931,16.419,16.419,0,0,0,3.8,6.294.863.863,0,0,0,1.029.153l2.961-1.637A13.269,13.269,0,0,0,30.7,36.648v3.273a.806.806,0,0,0,.653.778,18.233,18.233,0,0,0,7.589,0,.806.806,0,0,0,.653-.778V36.648a13.688,13.688,0,0,0,4.226-2.335l2.961,1.637A.852.852,0,0,0,47.81,35.8a16.32,16.32,0,0,0,3.8-6.294A.807.807,0,0,0,51.222,28.564ZM35.14,29.915a5.452,5.452,0,0,1-5.56-5.323,5.565,5.565,0,0,1,11.12,0A5.452,5.452,0,0,1,35.14,29.915Z" transform="translate(-18.644 -8.099)"/></svg>